<svg width="1440" height="700" viewBox="0 0 1440 700" fill="none" xmlns="http://www.w3.org/2000/svg">
<g clip-path="url(#clip0_3828_5778)">
<rect width="1440" height="700" fill="#17181C"/>
<circle cx="-10" cy="750" r="400" fill="#1B1C21"/>
<path fill-rule="evenodd" clip-rule="evenodd" d="M48.5 399C95.7204 399 134 360.72 134 313.5C134 266.28 95.7204 228 48.5 228C1.27965 228 -37 266.28 -37 313.5C-37 360.72 1.27965 399 48.5 399ZM48.5 444C120.573 444 179 385.573 179 313.5C179 241.427 120.573 183 48.5 183C-23.5732 183 -82 241.427 -82 313.5C-82 385.573 -23.5732 444 48.5 444Z" fill="#1F2026"/>
<path fill-rule="evenodd" clip-rule="evenodd" d="M470 578.831C478.684 578.831 483.831 573.684 483.831 565C483.831 556.316 478.684 550.763 470 550.763C461.316 550.763 456.576 556.316 456.576 565C456.576 573.684 461.316 578.831 470 578.831ZM470 589C483.255 589 494 578.255 494 565C494 551.745 483.255 541 470 541C456.745 541 446 551.745 446 565C446 578.255 456.745 589 470 589Z" fill="#1F2026"/>
<path fill-rule="evenodd" clip-rule="evenodd" d="M352.197 608.979L344.97 582.008L366.547 576.227L373.774 603.197L400.744 595.971L406.525 617.547L379.555 624.774L386.782 651.744L365.205 657.525L357.979 630.555L331.008 637.782L325.227 616.205L352.197 608.979Z" fill="#1F2026"/>
<path fill-rule="evenodd" clip-rule="evenodd" d="M389.373 507.217L380.818 492.399L392.673 485.555L401.228 500.373L416.046 491.818L422.89 503.673L408.072 512.228L416.627 527.046L404.773 533.89L396.217 519.072L381.399 527.627L374.555 515.773L389.373 507.217Z" fill="#1F2026"/>
<path fill-rule="evenodd" clip-rule="evenodd" d="M248.855 180.191L267.184 190.774L258.718 205.437L240.389 194.855L229.807 213.184L215.143 204.718L225.726 186.389L207.396 175.806L215.862 161.143L234.192 171.725L244.774 153.396L259.437 161.862L248.855 180.191Z" fill="#1F2026"/>
</g>
<defs>
<clipPath id="clip0_3828_5778">
<rect width="1440" height="700" fill="white"/>
</clipPath>
</defs>
</svg>
