<svg width="1440" height="1404" viewBox="0 0 1440 1404" fill="none" xmlns="http://www.w3.org/2000/svg">
<path fill-rule="evenodd" clip-rule="evenodd" d="M195 101.831C203.684 101.831 208.831 96.6842 208.831 88C208.831 79.3158 203.684 73.7627 195 73.7627C186.316 73.7627 181.576 79.3158 181.576 88C181.576 96.6842 186.316 101.831 195 101.831ZM195 112C208.255 112 219 101.255 219 88C219 74.7452 208.255 64 195 64C181.745 64 171 74.7452 171 88C171 101.255 181.745 112 195 112Z" fill="#1F2026"/>
<path fill-rule="evenodd" clip-rule="evenodd" d="M95.5 141.534C108.707 141.534 116.534 133.707 116.534 120.5C116.534 107.293 108.707 98.8475 95.5 98.8475C82.2928 98.8475 75.0847 107.293 75.0847 120.5C75.0847 133.707 82.2928 141.534 95.5 141.534ZM95.5 157C115.658 157 132 140.658 132 120.5C132 100.342 115.658 84 95.5 84C75.3416 84 59 100.342 59 120.5C59 140.658 75.3416 157 95.5 157Z" fill="#1F2026"/>
<path fill-rule="evenodd" clip-rule="evenodd" d="M114.373 30.2174L105.818 15.3994L117.673 8.5552L126.228 23.3733L141.046 14.8181L147.89 26.6725L133.072 35.2277L141.627 50.0458L129.773 56.89L121.217 42.0719L106.399 50.6271L99.5552 38.7727L114.373 30.2174Z" fill="#1F2026"/>
<path fill-rule="evenodd" clip-rule="evenodd" d="M1428.5 995C1475.72 995 1514 956.72 1514 909.5C1514 862.28 1475.72 824 1428.5 824C1381.28 824 1343 862.28 1343 909.5C1343 956.72 1381.28 995 1428.5 995ZM1428.5 1040C1500.57 1040 1559 981.573 1559 909.5C1559 837.427 1500.57 779 1428.5 779C1356.43 779 1298 837.427 1298 909.5C1298 981.573 1356.43 1040 1428.5 1040Z" fill="#1F2026"/>
<path fill-rule="evenodd" clip-rule="evenodd" d="M1272.5 1042.03C1287.15 1042.03 1299.03 1030.15 1299.03 1015.5C1299.03 1000.85 1287.15 988.966 1272.5 988.966C1257.85 988.966 1245.97 1000.85 1245.97 1015.5C1245.97 1030.15 1257.85 1042.03 1272.5 1042.03ZM1272.5 1056C1294.87 1056 1313 1037.87 1313 1015.5C1313 993.132 1294.87 975 1272.5 975C1250.13 975 1232 993.132 1232 1015.5C1232 1037.87 1250.13 1056 1272.5 1056Z" fill="#1F2026"/>
<circle cx="-93" cy="1372" r="400" fill="#1B1C21"/>
<path fill-rule="evenodd" clip-rule="evenodd" d="M331 1093.83C339.684 1093.83 344.831 1088.68 344.831 1080C344.831 1071.32 339.684 1065.76 331 1065.76C322.316 1065.76 317.576 1071.32 317.576 1080C317.576 1088.68 322.316 1093.83 331 1093.83ZM331 1104C344.255 1104 355 1093.25 355 1080C355 1066.75 344.255 1056 331 1056C317.745 1056 307 1066.75 307 1080C307 1093.25 317.745 1104 331 1104Z" fill="#1F2026"/>
<path fill-rule="evenodd" clip-rule="evenodd" d="M213.197 1123.98L205.97 1097.01L227.547 1091.23L234.774 1118.2L261.744 1110.97L267.525 1132.55L240.555 1139.77L247.782 1166.74L226.205 1172.53L218.979 1145.55L192.008 1152.78L186.227 1131.21L213.197 1123.98Z" fill="#1F2026"/>
<path fill-rule="evenodd" clip-rule="evenodd" d="M250.373 1022.22L241.818 1007.4L253.673 1000.56L262.228 1015.37L277.046 1006.82L283.89 1018.67L269.072 1027.23L277.627 1042.05L265.773 1048.89L257.217 1034.07L242.399 1042.63L235.555 1030.77L250.373 1022.22Z" fill="#1F2026"/>
</svg>
