<svg width="70" height="64" viewBox="0 0 70 64" fill="none" xmlns="http://www.w3.org/2000/svg">
<path d="M42.3618 63.4359C42.3618 63.4359 39.8568 60.1589 34.9998 60.1589C30.1428 60.1589 27.6338 63.4359 27.6338 63.4359C27.6338 63.4359 29.5148 54.7419 34.9998 54.7419C40.4848 54.7419 42.3618 63.4359 42.3618 63.4359Z" fill="url(#paint0_linear_3814_5558)"/>
<path d="M66.298 40.744C66.911 38.201 70 35.429 70 31.37C70 27.845 60.599 14.543 60.599 12.715C60.599 11.316 63.823 10.018 63.823 10.018C63.823 10.018 56.728 9.988 55.84 13.415C55.261 15.661 55.919 16.797 56.442 17.316C56.683 17.553 57.003 17.692 57.337 17.741L58.198 17.858C57.31 18.2 56.024 19.476 57.513 20.965C58.999 22.455 60.255 20.709 60.255 20.709C60.255 20.709 59.958 22.116 60.597 22.488C61.237 22.857 61.902 22.744 61.902 22.744C61.902 22.744 59.825 24.215 61.304 25.595C62.782 26.972 63.809 25.102 63.809 25.102C63.809 25.102 63.617 26.355 63.403 26.964C63.189 27.577 64.024 28.04 64.024 28.04C64.024 28.04 62.011 29.172 63.196 30.357C64.381 31.542 65.288 30.372 65.288 30.372C65.397 30.914 64.852 31.286 64.562 31.937C64.269 32.584 65.198 35.857 59.803 40.059C56.94 37.945 50.18 35.515 50.18 35.515C58.351 33.657 60.709 29.372 54.709 21.942C46.794 11.428 58.482 9.487 58.482 9.487C58.482 9.487 56.417 5.91 55.002 3.461C53.448 0.770999 50.424 0 48.208 0C46.353 0 34.996 0 34.996 0C34.996 0 23.639 0 21.781 0C19.569 0 16.545 0.770999 14.991 3.461C13.577 5.91 11.511 9.487 11.511 9.487C11.511 9.487 23.195 11.428 15.28 21.942C9.28 29.372 11.642 33.656 19.809 35.515C19.809 35.515 13.053 37.945 10.186 40.059C4.795 35.857 5.724 32.584 5.431 31.937C5.138 31.286 4.596 30.914 4.701 30.372C4.701 30.372 5.608 31.542 6.796 30.357C7.981 29.172 5.965 28.04 5.965 28.04C5.965 28.04 6.8 27.577 6.589 26.964C6.375 26.355 6.179 25.102 6.179 25.102C6.179 25.102 7.21 26.972 8.688 25.595C10.166 24.214 8.086 22.744 8.086 22.744C8.086 22.744 8.756 22.857 9.395 22.488C10.035 22.116 9.737 20.709 9.737 20.709C9.737 20.709 10.99 22.454 12.479 20.965C13.969 19.475 12.678 18.2 11.794 17.858L12.655 17.741C12.99 17.692 13.31 17.553 13.55 17.316C14.073 16.797 14.727 15.661 14.148 13.415C13.272 9.988 6.177 10.018 6.177 10.018C6.177 10.018 9.401 11.316 9.401 12.715C9.401 14.543 0 27.845 0 31.37C0 35.429 3.085 38.201 3.702 40.744C4.315 43.287 2.145 47.316 5.414 52.402C5.414 52.402 4.601 48.715 8.585 44.344C11.658 41.056 21.785 37.272 21.785 37.272C24.659 39.883 24.858 42.802 21.484 46.142C21.484 46.142 21.443 47.5 20.713 48.03C20.901 47.214 19.987 45.329 18.445 46.142C16.899 46.958 17.328 48.358 18.231 48.971C17.731 48.715 16.922 48.392 16.343 48.715C15.764 49.035 15.624 49.595 15.681 50.513C15.681 49.742 14.394 48.523 13.217 49.486C12.036 50.449 12.788 51.909 13.774 52.187C13.345 52.315 12.762 52.221 12.446 52.014C12.342 52.178 12.266 52.363 12.216 52.568C12.061 53.194 12.199 53.857 12.539 54.405C13.954 56.681 16.477 59.383 19.218 62.171C22.182 53.707 25.496 46.281 29.601 41.229C30.895 42.128 32.298 42.41 33.803 42.113C33.803 42.113 32.302 41.665 31.32 40.401C30.338 39.137 28.303 36.049 24.718 35.198C22.13 33.027 22.344 28.713 22.344 28.713C22.344 28.713 22.679 29.315 24.089 29.315C25.496 29.315 27.065 25.414 26.515 24.056C25.966 22.702 24.446 22.717 23.66 23.913C23.66 23.913 22.46 23.202 22.46 17.838C22.46 11.56 32.229 5.428 35.002 4.145C37.771 5.428 47.544 11.56 47.544 17.838C47.544 23.202 46.344 23.913 46.344 23.913C45.558 22.717 44.038 22.702 43.485 24.056C42.936 25.414 44.508 29.315 45.915 29.315C47.322 29.315 47.657 28.713 47.657 28.713C47.657 28.713 47.871 33.028 45.287 35.198C41.702 36.048 39.667 39.137 38.685 40.401C37.699 41.665 36.202 42.113 36.202 42.113C37.707 42.41 39.106 42.128 40.4 41.229C44.504 46.281 47.818 53.707 50.786 62.171C53.524 59.386 56.041 56.687 57.459 54.412C57.802 53.863 57.94 53.196 57.785 52.568C57.735 52.363 57.66 52.178 57.557 52.014C57.241 52.221 56.658 52.315 56.229 52.187C57.215 51.909 57.963 50.449 56.786 49.486C55.609 48.523 54.322 49.742 54.322 50.513C54.375 49.595 54.235 49.035 53.656 48.715C53.077 48.391 52.272 48.715 51.771 48.971C52.67 48.358 53.099 46.958 51.557 46.142C50.015 45.329 49.101 47.214 49.285 48.03C48.559 47.5 48.514 46.142 48.514 46.142C45.143 42.802 45.343 39.882 48.213 37.272C48.213 37.272 58.344 41.056 61.413 44.344C65.401 48.715 64.584 52.402 64.584 52.402C67.856 47.316 65.685 43.287 66.298 40.744ZM29.527 40.015C27.827 40.222 26.442 39.895 26.228 37.615C27.379 37.615 28.477 38.45 29.527 40.015ZM40.47 40.015C41.523 38.45 42.622 37.615 43.769 37.615C43.558 39.894 42.174 40.222 40.47 40.015Z" fill="url(#paint1_linear_3814_5558)"/>
<defs>
<linearGradient id="paint0_linear_3814_5558" x1="34.9979" y1="63.785" x2="34.9979" y2="-0.0170242" gradientUnits="userSpaceOnUse">
<stop stop-color="#00AC62"/>
<stop offset="1" stop-color="#00FFA5"/>
</linearGradient>
<linearGradient id="paint1_linear_3814_5558" x1="35" y1="63.7851" x2="35" y2="-0.0169685" gradientUnits="userSpaceOnUse">
<stop stop-color="#00AC62"/>
<stop offset="1" stop-color="#00FFA5"/>
</linearGradient>
</defs>
</svg>
